name rise45.9887peak57.8056fall74.9286.mot
datacolumns 19
datarows 11
range 19.94159900000000 19.95826200000000
endheader
time	ground_force1_vx	ground_force1_vy	ground_force1_vz	ground_force1_px	ground_force1_py	ground_force1_pz	ground_force2_vx	ground_force2_vy	ground_force2_vz	ground_force2_px	ground_force2_py	ground_force2_pz	ground_torque1_x	ground_torque1_y	ground_torque1_z	ground_torque2_x	ground_torque2_y	ground_torque2_z	
19.94159900000000	-45.76333100000000	777.53222900000003	48.31177400000000	0.09416100000000	0.00000000000000	0.10296600000000	-1.81797900000000	15.60598500000000	3.22465900000000	0.00000000000000	0.00000000000000	0.00000000000000	0.00000000000000	18.35322100000000	0.00000000000000	0.00000000000000	1.10610900000000	0.00000000000000	
19.94326000000000	-46.30695500000000	776.25515099999996	48.25590900000000	0.09334500000000	0.00000000000000	0.10288700000000	-2.25781900000000	21.01616500000000	4.19890600000000	0.00000000000000	0.00000000000000	0.00000000000000	0.00000000000000	18.32997100000000	0.00000000000000	0.00000000000000	1.45271700000000	0.00000000000000	
19.94492700000000	-46.86389800000000	774.90463799999998	48.18581100000000	0.09253100000000	0.00000000000000	0.10280500000000	-2.68995300000000	26.96021300000000	5.22973800000000	0.30375500000000	0.00000000000000	-0.07916500000000	0.00000000000000	18.30704500000000	0.00000000000000	0.00000000000000	3.19881600000000	0.00000000000000	
19.94659100000000	-47.43425000000000	773.47839699999997	48.10092400000000	0.09171700000000	0.00000000000000	0.10272000000000	-3.09469000000000	33.32624200000000	6.28848200000000	0.31168700000000	0.00000000000000	-0.07942100000000	0.00000000000000	18.28448600000000	0.00000000000000	0.00000000000000	3.92238800000000	0.00000000000000	
19.94825700000000	-48.01805500000000	771.97408600000006	48.00070100000000	0.09090500000000	0.00000000000000	0.10263300000000	-3.45304200000000	39.99345800000000	7.34583600000000	0.31858200000000	0.00000000000000	-0.07966500000000	0.00000000000000	18.26233500000000	0.00000000000000	0.00000000000000	4.66287000000000	0.00000000000000	
19.94992400000000	-48.61530200000000	770.38931400000001	47.88460500000000	0.09009400000000	0.00000000000000	0.10254300000000	-3.74804600000000	46.84215200000000	8.37405400000000	0.32462800000000	0.00000000000000	-0.07989900000000	0.00000000000000	18.24062800000000	0.00000000000000	0.00000000000000	5.40154800000000	0.00000000000000	
19.95158800000000	-49.22592600000000	768.72164299999997	47.75211100000000	0.08928400000000	0.00000000000000	0.10245000000000	-3.96582100000000	53.76273500000000	9.34883100000000	0.32997300000000	0.00000000000000	-0.08012600000000	0.00000000000000	18.21939600000000	0.00000000000000	0.00000000000000	6.12146600000000	0.00000000000000	
19.95326100000000	-49.84980900000000	766.96859099999995	47.60270900000000	0.08847500000000	0.00000000000000	0.10235500000000	-4.09625200000000	60.66284500000000	10.25067800000000	0.33473200000000	0.00000000000000	-0.08034600000000	0.00000000000000	18.19866500000000	0.00000000000000	0.00000000000000	6.80845400000000	0.00000000000000	
19.95493000000000	-50.48677200000000	765.12763700000005	47.43590400000000	0.08766700000000	0.00000000000000	0.10225600000000	-4.13328300000000	67.47201699999999	11.06571300000000	0.33899800000000	0.00000000000000	-0.08056100000000	0.00000000000000	18.17845700000000	0.00000000000000	0.00000000000000	7.45178100000000	0.00000000000000	
19.95659300000000	-51.13657600000000	763.19622400000003	47.25122200000000	0.08686200000000	0.00000000000000	0.10215500000000	-4.07483200000000	74.14382600000000	11.78587100000000	0.34284400000000	0.00000000000000	-0.08077200000000	0.00000000000000	18.15878700000000	0.00000000000000	0.00000000000000	8.04442200000000	0.00000000000000	
19.95826200000000	-51.79892000000000	761.17176099999995	47.04820900000000	0.08605800000000	0.00000000000000	0.10205100000000	-3.92239900000000	80.65569400000000	12.40860300000000	0.34633000000000	0.00000000000000	-0.08097800000000	0.00000000000000	18.13966400000000	0.00000000000000	0.00000000000000	8.58298500000000	0.00000000000000	
